<svg width="153" height="154" viewBox="0 0 153 154" fill="none" xmlns="http://www.w3.org/2000/svg">
<path opacity="0.2" fill-rule="evenodd" clip-rule="evenodd" d="M80.4687 21.9015C89.6846 20.8288 97.4632 27.9439 105.744 32.1195C115.047 36.8104 130.206 37.6366 131.994 47.8826C133.968 59.1948 116.838 65.1238 113.418 76.0874C110.84 84.3515 117.726 93.1545 115.282 101.459C112.084 112.321 107.952 124.982 97.6359 129.696C87.3606 134.391 75.2745 128.812 64.8271 124.512C55.1711 120.537 47.6422 113.501 40.2948 106.094C32.453 98.1873 19.4673 91.0089 20.6247 79.9457C21.8609 68.128 37.637 64.3111 45.5908 55.4681C50.6379 49.8568 53.28 42.8271 58.7187 37.5928C65.2912 31.2675 71.3986 22.9571 80.4687 21.9015Z" stroke="#5AC8FA"/>
<path opacity="0.08" fill-rule="evenodd" clip-rule="evenodd" d="M32.6233 43.4605C36.7263 35.139 46.9247 32.47 54.9273 27.7831C63.9177 22.5178 72.8419 10.2368 82.4171 14.2982C92.9886 18.7822 88.6665 36.3867 96.0165 45.2115C101.557 51.8633 112.688 50.8601 118.334 57.4219C125.72 66.0052 134.109 76.3488 132.466 87.5716C130.829 98.7495 119.582 105.87 110.299 112.308C101.718 118.259 91.7221 120.762 81.512 122.91C70.6149 125.202 57.536 132.209 48.874 125.231C39.6211 117.776 44.9816 102.456 41.8741 90.9748C39.9022 83.6898 35.4335 77.6543 33.991 70.245C32.2477 61.2914 28.5851 51.6504 32.6233 43.4605Z" fill="#5AC8FA"/>
<path fill-rule="evenodd" clip-rule="evenodd" d="M72 93C72 96.3137 69.3137 99 66 99C62.6863 99 60 96.3137 60 93C60 89.6863 62.6863 87 66 87C69.3137 87 72 89.6863 72 93ZM68 93C68 94.1046 67.1046 95 66 95C64.8954 95 64 94.1046 64 93C64 91.8954 64.8954 91 66 91C67.1046 91 68 91.8954 68 93Z" fill="#5AC8FA"/>
<path fill-rule="evenodd" clip-rule="evenodd" d="M92 93C92 96.3137 89.3137 99 86 99C82.6863 99 80 96.3137 80 93C80 89.6863 82.6863 87 86 87C89.3137 87 92 89.6863 92 93ZM88 93C88 94.1046 87.1046 95 86 95C84.8954 95 84 94.1046 84 93C84 91.8954 84.8954 91 86 91C87.1046 91 88 91.8954 88 93Z" fill="#5AC8FA"/>
<path fill-rule="evenodd" clip-rule="evenodd" d="M56.2111 58.1055C56.7051 57.1176 57.9064 56.7171 58.8944 57.2111L60.9014 58.2146C62.7599 59.1439 64.0053 60.9686 64.1935 63.038L64.2892 64.0905C64.336 64.6056 64.7678 64.9999 65.285 64.9999H91.6709C95.162 64.9999 97.5784 68.4868 96.3526 71.7556L92.8459 81.1067C91.9677 83.4485 89.729 85 87.2279 85H67.6528C64.5496 85 61.9584 82.6336 61.6774 79.5432L60.2099 63.4001C60.1472 62.7103 59.732 62.1021 59.1125 61.7923L57.1055 60.7888C56.1176 60.2948 55.7171 59.0935 56.2111 58.1055ZM65.8305 68.9999C65.2425 68.9999 64.7814 69.5049 64.8346 70.0905L65.661 79.181C65.7547 80.2112 66.6184 81 67.6528 81H87.2279C88.0616 81 88.8079 80.4828 89.1006 79.7022L92.6073 70.3511C92.8524 69.6973 92.3692 68.9999 91.6709 68.9999H65.8305Z" fill="#5AC8FA"/>
</svg>
