<svg width="153" height="154" viewBox="0 0 153 154" fill="none" xmlns="http://www.w3.org/2000/svg">
<path opacity="0.2" fill-rule="evenodd" clip-rule="evenodd" d="M80.4687 21.9015C89.6846 20.8288 97.4632 27.9439 105.744 32.1195C115.047 36.8104 130.206 37.6366 131.994 47.8826C133.968 59.1948 116.838 65.1238 113.418 76.0874C110.84 84.3515 117.726 93.1545 115.282 101.459C112.084 112.321 107.952 124.982 97.6359 129.696C87.3606 134.391 75.2745 128.812 64.8271 124.512C55.1711 120.537 47.6422 113.501 40.2948 106.094C32.453 98.1873 19.4673 91.0089 20.6247 79.9457C21.8609 68.128 37.637 64.3111 45.5908 55.4681C50.6379 49.8568 53.28 42.8271 58.7187 37.5928C65.2912 31.2675 71.3986 22.9571 80.4687 21.9015Z" stroke="#FF3347"/>
<path opacity="0.08" fill-rule="evenodd" clip-rule="evenodd" d="M32.6233 43.4605C36.7263 35.139 46.9247 32.47 54.9273 27.7831C63.9177 22.5178 72.8419 10.2368 82.4171 14.2982C92.9886 18.7822 88.6665 36.3867 96.0165 45.2115C101.557 51.8633 112.688 50.8601 118.334 57.4219C125.72 66.0052 134.109 76.3488 132.466 87.5716C130.829 98.7495 119.582 105.87 110.299 112.308C101.718 118.259 91.7221 120.762 81.512 122.91C70.6149 125.202 57.536 132.209 48.874 125.231C39.6211 117.776 44.9816 102.456 41.8741 90.9748C39.9022 83.6898 35.4335 77.6543 33.991 70.245C32.2477 61.2914 28.5851 51.6504 32.6233 43.4605Z" fill="#FF3347"/>
<path d="M83.9835 61.012C81.081 61.1396 78.4779 62.2867 76.222 64.399L75.988 64.626L75.7445 64.39C73.3251 62.1521 70.5492 61 67.4688 61C61.1543 61 56 66.1205 56 72.4345C56 78.6093 58.2547 81.5376 68.3648 89.526L73.7409 93.7214C75.0691 94.7566 76.9309 94.7566 78.2591 93.7214L82.9874 90.0364L84.8538 88.5569C93.9293 81.288 96 78.352 96 72.4345C96 66.1205 90.8457 61 84.5312 61L83.9835 61.012ZM84.5312 64.6C88.8627 64.6 92.4 68.1141 92.4 72.4345L92.3901 73.0217C92.2384 77.3349 90.2663 79.7041 81.3721 86.7261L76.0461 90.882C76.019 90.9031 75.981 90.9031 75.9539 90.882L71.2256 87.1969L69.478 85.8133C61.1936 79.1954 59.6 76.9335 59.6 72.4345C59.6 68.1141 63.1373 64.6 67.4688 64.6C70.1346 64.6 72.4815 65.8352 74.6075 68.4305C75.3325 69.3154 76.6882 69.3085 77.404 68.4162C79.4778 65.8313 81.8174 64.6 84.5312 64.6Z" fill="#FF3347"/>
</svg>
