<svg width="16" height="21" viewBox="0 0 16 21" fill="none" xmlns="http://www.w3.org/2000/svg">
<path d="M15.7142 8.2983C15.7142 4.03115 12.2608 0.571289 7.99993 0.571289C3.73909 0.571289 0.285645 4.03115 0.285645 8.2983C0.285645 11.3392 2.15351 15.0097 5.84023 19.3686C6.84904 20.5614 8.63378 20.7105 9.82655 19.7017C9.94664 19.6001 10.0581 19.4887 10.1596 19.3686C13.8463 15.0097 15.7142 11.3392 15.7142 8.2983ZM8.71951 18.3928C8.24963 18.7902 7.54655 18.7315 7.14914 18.2616C3.69999 14.1835 1.99993 10.8428 1.99993 8.2983C1.99993 4.97721 4.68658 2.28557 7.99993 2.28557C11.3133 2.28557 13.9999 4.97721 13.9999 8.2983C13.9999 10.8428 12.2999 14.1835 8.85072 18.2616C8.81071 18.3089 8.76682 18.3528 8.71951 18.3928ZM4.57136 8.28557C4.57136 6.39252 6.10687 4.857 7.99993 4.857C9.89299 4.857 11.4285 6.39252 11.4285 8.28557C11.4285 10.1786 9.89299 11.7141 7.99993 11.7141C6.10687 11.7141 4.57136 10.1786 4.57136 8.28557ZM6.28565 8.28557C6.28565 9.23186 7.05365 9.99986 7.99993 9.99986C8.94622 9.99986 9.71422 9.23186 9.71422 8.28557C9.71422 7.33929 8.94622 6.57129 7.99993 6.57129C7.05365 6.57129 6.28565 7.33929 6.28565 8.28557Z" fill="#3F8AE0"/>
</svg>
