<svg width="20" height="20" viewBox="0 0 20 20" fill="none" xmlns="http://www.w3.org/2000/svg">
<path d="M12.5904 0.100098C14.7583 0.100098 15.7924 0.299799 16.8666 0.874298C17.8383 1.39395 18.6062 2.16189 19.1259 3.13354C19.7004 4.20776 19.9001 5.2419 19.9001 7.40981V12.5904C19.9001 14.7583 19.7004 15.7924 19.1259 16.8666C18.6062 17.8383 17.8383 18.6062 16.8666 19.1259C15.7924 19.7004 14.7583 19.9001 12.5904 19.9001H7.40981C5.2419 19.9001 4.20776 19.7004 3.13354 19.1259C2.16189 18.6062 1.39395 17.8383 0.874298 16.8666C0.299799 15.7924 0.100098 14.7583 0.100098 12.5904V7.40981C0.100098 5.2419 0.299799 4.20776 0.874298 3.13354C1.39395 2.16189 2.16189 1.39395 3.13354 0.874298C4.20776 0.299799 5.2419 0.100098 7.40981 0.100098H12.5904ZM12.5904 1.9001H7.40981C5.51364 1.9001 4.76022 2.04559 3.98242 2.46156C3.32445 2.81345 2.81345 3.32445 2.46156 3.98242C2.04559 4.76022 1.9001 5.51364 1.9001 7.40981V12.5904C1.9001 14.4866 2.04559 15.24 2.46156 16.0178C2.81345 16.6757 3.32445 17.1867 3.98242 17.5386C4.76022 17.9546 5.51364 18.1001 7.40981 18.1001H12.5904C14.4866 18.1001 15.24 17.9546 16.0178 17.5386C16.6757 17.1867 17.1867 16.6757 17.5386 16.0178C17.9546 15.24 18.1001 14.4866 18.1001 12.5904V7.40981C18.1001 5.51364 17.9546 4.76022 17.5386 3.98242C17.1867 3.32445 16.6757 2.81345 16.0178 2.46156C15.24 2.04559 14.4866 1.9001 12.5904 1.9001ZM10.0001 5.5001C10.4589 5.5001 10.8375 5.84343 10.8931 6.2872L10.9001 6.4001L10.8991 9.1001H13.6001C14.0589 9.1001 14.4375 9.44343 14.4931 9.8872L14.5001 10.0001C14.5001 10.4589 14.1568 10.8375 13.713 10.8931L13.6001 10.9001H10.8991L10.9001 13.6001C10.9001 14.0589 10.5568 14.4375 10.113 14.4931L10.0001 14.5001C9.54128 14.5001 9.16265 14.1568 9.10711 13.713L9.1001 13.6001L9.0991 10.9001H6.4001C5.94128 10.9001 5.56265 10.5568 5.50711 10.113L5.5001 10.0001C5.5001 9.54128 5.84343 9.16265 6.2872 9.10711L6.4001 9.1001H9.0991L9.1001 6.4001C9.1001 5.94128 9.44343 5.56265 9.8872 5.50711L10.0001 5.5001Z" fill="#3F8AE0"/>
</svg>
