<svg width="20" height="21" viewBox="0 0 20 21" fill="none" xmlns="http://www.w3.org/2000/svg">
<path d="M10.0021 2.60894C11.4122 0.0695097 14.0769 -0.240313 15.6 1.28276C16.8445 2.52723 16.8653 4.53648 15.4524 6.0009L16 5.99986C18.2091 5.99986 20 7.79072 20 9.99986V10.4293C20 11.4363 19.8608 11.9762 19.5993 12.4651C19.3378 12.954 18.9542 13.3377 18.4653 13.5992C18.319 13.6774 18.1682 13.7447 18.0016 13.8005L18 15.8721C18 17.6551 17.8143 18.3017 17.4657 18.9536C17.1171 19.6054 16.6055 20.117 15.9537 20.4656C15.3018 20.8142 14.6553 20.9999 12.8722 20.9999H7.12777C5.34473 20.9999 4.69816 20.8142 4.04631 20.4656C3.39446 20.117 2.88288 19.6054 2.53427 18.9536C2.18565 18.3017 2 17.6551 2 15.8721L1.99936 13.8009C1.83242 13.7449 1.68128 13.6775 1.53473 13.5992C1.04584 13.3377 0.66216 12.954 0.400699 12.4651C0.161027 12.017 0.0240553 11.5259 0.00289106 10.6716L0 9.99986C0 7.79072 1.79086 5.99986 4 5.99986L4.55091 6.0009C3.13799 4.53648 3.1588 2.52723 4.40326 1.28276C5.92752 -0.241493 8.59522 0.0699911 10.0021 2.60894ZM9.1 13.9999H3.799L3.801 16.1154L3.80931 16.5428C3.83686 17.3892 3.92843 17.7436 4.12153 18.1047C4.30238 18.4428 4.55702 18.6975 4.89519 18.8783C5.3118 19.1011 5.71955 19.1888 6.88446 19.1989H9.1V13.9999ZM16.2 13.9999H10.9V19.1989H13.1155L13.5429 19.1906C14.3893 19.163 14.7437 19.0714 15.1048 18.8783C15.443 18.6975 15.6976 18.4428 15.8785 18.1047C16.1013 17.6881 16.1889 17.2803 16.199 16.1154L16.2 13.9999ZM16 7.79986L10.9116 7.80056C10.908 7.8008 10.9044 7.80105 10.9007 7.80129L10.9 12.1989H16.524L16.6185 12.1981C17.1524 12.1876 17.3971 12.1292 17.6164 12.0119C17.7916 11.9182 17.9183 11.7915 18.012 11.6163C18.1293 11.3969 18.1877 11.1523 18.1983 10.6184L18.2 9.99986C18.2 8.78484 17.215 7.79986 16 7.79986ZM9.09167 7.80056L4 7.79986C2.78497 7.79986 1.8 8.78484 1.8 9.99986L1.80174 10.6184C1.81225 11.1523 1.87066 11.3969 1.98796 11.6163C2.08166 11.7915 2.2084 11.9182 2.38361 12.0119C2.61506 12.1357 2.87468 12.1939 3.47271 12.1994L9.1 12.1989L9.10056 7.80116C9.09759 7.80096 9.09463 7.80076 9.09167 7.80056ZM5.67606 2.55556C4.60685 3.62477 5.59914 5.6319 8.84881 5.97448L9.09722 5.99585C9.09809 5.98243 9.099 5.96903 9.09992 5.95566L9.10303 5.99771C8.8434 2.53807 6.87416 1.35746 5.67606 2.55556ZM14.3272 2.55556C13.1291 1.35746 11.1599 2.53807 10.9002 5.99771L10.9037 5.96071C10.9045 5.9724 10.9053 5.98412 10.906 5.99585L11.1545 5.97448C14.4041 5.6319 15.3964 3.62477 14.3272 2.55556Z" fill="#3F8AE0"/>
</svg>
