<svg width="22" height="22" viewBox="0 0 22 22" fill="none" xmlns="http://www.w3.org/2000/svg">
<path d="M11.0001 0.714355C16.6807 0.714355 21.2858 5.31943 21.2858 11.0001C21.2858 16.6807 16.6807 21.2858 11.0001 21.2858C5.31943 21.2858 0.714355 16.6807 0.714355 11.0001C0.714355 5.31943 5.31943 0.714355 11.0001 0.714355ZM11.0001 2.42864C6.2662 2.42864 2.42864 6.2662 2.42864 11.0001C2.42864 15.7339 6.2662 19.5715 11.0001 19.5715C15.7339 19.5715 19.5715 15.7339 19.5715 11.0001C19.5715 6.2662 15.7339 2.42864 11.0001 2.42864ZM11.0001 14.0858C11.6628 14.0858 12.2001 14.623 12.2001 15.2858C12.2001 15.9485 11.6628 16.4858 11.0001 16.4858C10.3373 16.4858 9.80007 15.9485 9.80007 15.2858C9.80007 14.623 10.3373 14.0858 11.0001 14.0858ZM11.0632 5.85721C11.2668 5.85721 11.3947 5.88904 11.5064 5.9488C11.6182 6.00856 11.7059 6.09626 11.7656 6.20801C11.8254 6.31975 11.8572 6.4476 11.8572 6.65125V11.9203C11.8572 12.124 11.8254 12.2518 11.7656 12.3636C11.7059 12.4753 11.6182 12.563 11.5064 12.6228C11.3947 12.6825 11.2668 12.7144 11.0632 12.7144H10.937C10.7333 12.7144 10.6055 12.6825 10.4937 12.6228C10.382 12.563 10.2943 12.4753 10.2345 12.3636C10.1748 12.2518 10.1429 12.124 10.1429 11.9203V6.65125C10.1429 6.4476 10.1748 6.31975 10.2345 6.20801C10.2943 6.09626 10.382 6.00856 10.4937 5.9488C10.6055 5.88904 10.7333 5.85721 10.937 5.85721H11.0632Z" fill="#3F8AE0"/>
</svg>
