<svg width="22" height="22" viewBox="0 0 22 22" fill="none" xmlns="http://www.w3.org/2000/svg">
<path d="M16.4959 2.30404L16.6007 2.3714C16.6304 2.39075 16.6601 2.41025 16.6896 2.42989L16.601 2.37148C16.6713 2.41719 16.7409 2.46373 16.81 2.5111L16.6896 2.42989C16.7647 2.47982 16.839 2.5307 16.9126 2.58252L16.81 2.5111C16.8817 2.56024 16.9527 2.61026 17.023 2.66115L17.0229 2.6612C17.1295 2.73823 17.2345 2.8173 17.3379 2.8983C17.4645 2.99753 17.5888 3.09974 17.7107 3.20475C17.9114 3.37759 18.1054 3.55827 18.2923 3.74613L18.2154 3.66964C18.2709 3.72429 18.3258 3.77957 18.3801 3.83546L18.2923 3.74613C18.3599 3.81407 18.4265 3.88294 18.4922 3.95274L18.3801 3.83546C18.4428 3.90004 18.5046 3.96543 18.5656 4.03163L18.4922 3.95274C18.548 4.01202 18.6031 4.07197 18.6574 4.13256L18.5656 4.03163C18.6254 4.0965 18.6844 4.16215 18.7425 4.22854L18.6574 4.13256C18.7156 4.19734 18.7729 4.26286 18.8294 4.32911L18.7425 4.22854C18.8008 4.29518 18.8583 4.36258 18.9149 4.43073L18.8294 4.32911C18.887 4.39665 18.9438 4.46494 18.9996 4.53397L18.9994 4.53377C19.2392 4.83006 19.4628 5.13971 19.6688 5.4616L19.5941 5.34652C19.6522 5.43469 19.709 5.5238 19.7644 5.61384L19.6688 5.4616C19.7134 5.53127 19.7572 5.60151 19.8002 5.67232L19.7644 5.61384C19.8013 5.67373 19.8376 5.73403 19.8733 5.79473L19.8002 5.67232C19.8494 5.75347 19.8976 5.83537 19.9446 5.91797L19.9447 5.91815C20.0169 6.04491 20.0865 6.17353 20.1535 6.30376C20.1782 6.35184 20.2024 6.39982 20.2262 6.448C20.2907 6.57852 20.3526 6.71069 20.4117 6.84435C20.6082 7.28875 20.7744 7.75021 20.9072 8.22557L20.9615 8.42784L21.0357 8.73559C21.0443 8.7738 21.0527 8.8121 21.0608 8.85047L21.1184 9.14194L21.1708 9.45724C21.1893 9.58009 21.2056 9.70365 21.2197 9.82788L21.1887 9.58086C21.2037 9.68957 21.217 9.79884 21.2286 9.90861L21.2285 9.90851C21.2549 10.1586 21.2723 10.4112 21.2805 10.6662L21.2805 10.6659L21.2858 11.0001L21.2813 11.306C21.2798 11.3574 21.2779 11.4087 21.2757 11.4599C21.2653 11.697 21.2468 11.9321 21.2206 12.1649L21.2282 12.0951C21.2164 12.2066 21.2028 12.3176 21.1875 12.428L21.2206 12.1649C21.2074 12.2818 21.1922 12.398 21.1752 12.5137L21.1752 12.5138C21.1383 12.7641 21.0923 13.0115 21.0377 13.2557L21.0376 13.256L20.9618 13.5714L20.9072 13.7746C20.751 14.3335 20.5488 14.8732 20.3049 15.3893C20.1793 15.6551 20.0424 15.9152 19.895 16.1683L19.9432 16.0846C19.9028 16.1556 19.8615 16.2261 19.8193 16.2961L19.895 16.1683C19.8483 16.2485 19.8005 16.3281 19.7517 16.4069L19.8193 16.2961C19.7735 16.3722 19.7268 16.4477 19.6791 16.5225L19.7517 16.4069C19.7008 16.4891 19.6488 16.5705 19.5957 16.6512L19.6791 16.5225C19.6463 16.5739 19.6131 16.625 19.5794 16.6758L19.5957 16.6512C19.5572 16.7096 19.5182 16.7676 19.4785 16.8251L19.5794 16.6758C19.5095 16.7812 19.4377 16.8853 19.3641 16.988L19.4785 16.8251C19.4272 16.8997 19.375 16.9735 19.3218 17.0466L19.3217 17.0467C19.0971 17.3552 18.8557 17.6509 18.5989 17.9322L18.6529 17.8726C18.5926 17.9397 18.5315 18.006 18.4695 18.0714L18.5989 17.9322C18.5343 18.003 18.4687 18.0729 18.4022 18.1418L18.4695 18.0714C18.4144 18.1296 18.3587 18.1871 18.3023 18.2439L18.4022 18.1418C18.3399 18.2064 18.2767 18.2702 18.2127 18.3331L18.3023 18.2439C18.2596 18.2869 18.2166 18.3296 18.1732 18.3718L18.1735 18.3715C18.0718 18.4704 17.9685 18.567 17.8632 18.6614C17.6355 18.8655 17.3986 19.0596 17.1533 19.243L17.2182 19.1941C17.1442 19.2503 17.0695 19.3056 16.994 19.3598L17.1533 19.243C17.0878 19.292 17.0218 19.3401 16.9552 19.3875L16.994 19.3598C16.9284 19.4069 16.8622 19.4533 16.7954 19.4989L16.9552 19.3875C16.8693 19.4486 16.7825 19.5084 16.6947 19.5669L16.7954 19.4989C16.74 19.5368 16.6842 19.5741 16.628 19.6109L16.6947 19.5669C16.6249 19.6133 16.5545 19.659 16.4836 19.7038L16.4837 19.7037C16.1583 19.9091 15.8208 20.0967 15.4722 20.2653L15.5811 20.2118C15.4971 20.2537 15.4124 20.2945 15.327 20.3341L15.4722 20.2653C15.3987 20.3008 15.3247 20.3356 15.2501 20.3694L15.327 20.3341C15.2487 20.3705 15.1698 20.4059 15.0904 20.4403L15.2501 20.3694C15.1607 20.4101 15.0705 20.4495 14.9797 20.4876L15.0904 20.4403C15.0004 20.4794 14.9097 20.5172 14.8184 20.5537L14.9797 20.4876C14.909 20.5173 14.8379 20.5462 14.7664 20.5744L14.8184 20.5537C14.7375 20.5861 14.6561 20.6175 14.5741 20.6478L14.7664 20.5744C14.6737 20.6108 14.5804 20.646 14.4865 20.6799L14.5741 20.6478C14.4653 20.6882 14.3557 20.7267 14.2452 20.7634L14.2449 20.7635C14.0788 20.8187 13.9105 20.8698 13.7404 20.9167L13.8483 20.8863C13.7719 20.9083 13.695 20.9294 13.6179 20.9497L13.7404 20.9167C13.6517 20.9412 13.5625 20.9645 13.4729 20.9866L13.6179 20.9497C13.5262 20.9737 13.434 20.9966 13.3413 21.0181L13.4729 20.9866C13.393 21.0063 13.3127 21.0251 13.232 21.043L13.3413 21.0181C13.256 21.038 13.1703 21.0568 13.0841 21.0745L13.232 21.043C13.1328 21.0649 13.0329 21.0854 12.9326 21.1045L13.0841 21.0745C12.9997 21.0919 12.915 21.1082 12.8298 21.1235L12.9326 21.1045C12.8539 21.1195 12.7748 21.1336 12.6954 21.1467L12.6956 21.1467C12.5924 21.1638 12.489 21.1793 12.385 21.1933L12.2826 21.2066L12.0358 21.2343C11.6952 21.2683 11.3496 21.2858 11.0001 21.2858C10.376 21.2858 9.76482 21.2302 9.17135 21.1237L9.29456 21.1456C9.20038 21.1299 9.10664 21.1129 9.01334 21.0946L9.17135 21.1237C9.09623 21.1102 9.02139 21.0959 8.94685 21.0808L8.94665 21.0813C8.77162 21.0453 8.598 21.0054 8.42612 20.9611L8.48811 20.9773C8.40808 20.9572 8.32843 20.9362 8.24916 20.9142L8.42612 20.9611C8.33878 20.9386 8.25189 20.915 8.16546 20.8902L8.16584 20.8908C7.94506 20.8272 7.72768 20.757 7.51359 20.6798L7.75512 20.7638C7.62539 20.7207 7.4968 20.6751 7.36941 20.627L7.51359 20.6798C7.43206 20.6505 7.351 20.6201 7.27044 20.5887L7.36941 20.627C7.27323 20.5907 7.17773 20.553 7.08295 20.5139L7.27044 20.5887C7.19008 20.5575 7.11022 20.5252 7.03086 20.492L7.08295 20.5139C7.01514 20.486 6.9477 20.4573 6.88063 20.4279L7.03086 20.492C6.9488 20.4576 6.86728 20.4222 6.78632 20.3858L6.88063 20.4279C6.79789 20.3917 6.71571 20.3545 6.63411 20.3161L6.78632 20.3858C6.70667 20.35 6.62755 20.3132 6.54899 20.2754L6.63411 20.3161C6.56194 20.2822 6.49024 20.2475 6.419 20.212L6.41902 20.2118C6.29422 20.1499 6.17088 20.0852 6.04904 20.0182C5.9958 19.9887 5.94264 19.9588 5.88977 19.9285C5.71378 19.8277 5.54124 19.7218 5.37217 19.6111L5.5164 19.7037C5.44546 19.6589 5.37511 19.6133 5.30535 19.5668L5.37217 19.6111C5.3117 19.5715 5.25169 19.5312 5.19212 19.4904L5.30535 19.5668C5.22885 19.5158 5.15308 19.4639 5.07804 19.411L5.19212 19.4904C5.11652 19.4386 5.04164 19.3858 4.96752 19.332L5.07804 19.411C5.00228 19.3575 4.92726 19.3031 4.85302 19.2477L4.96752 19.332C4.90509 19.2867 4.84318 19.2407 4.78182 19.1941L4.78193 19.1941C4.55992 19.0254 4.34507 18.848 4.1378 18.6622C4.01846 18.5552 3.9016 18.4454 3.78735 18.3331L3.82662 18.3715C3.7834 18.3295 3.74056 18.287 3.69808 18.2442L3.78735 18.3331C3.72335 18.2701 3.66016 18.2063 3.59781 18.1417L3.69808 18.2442C3.6416 18.1873 3.58577 18.1297 3.53062 18.0714L3.59781 18.1417C3.53146 18.0729 3.46607 18.0033 3.40164 17.9327L3.53062 18.0714C3.46855 18.0059 3.40732 17.9395 3.34697 17.8723L3.34726 17.8726C3.09429 17.5911 2.85687 17.2959 2.63604 16.988L2.67847 17.0467C2.62529 16.9736 2.57305 16.8999 2.52177 16.8254L2.63604 16.988C2.56249 16.8854 2.49078 16.7815 2.42096 16.6762L2.52177 16.8254C2.48207 16.7677 2.44293 16.7096 2.40438 16.6511L2.42096 16.6762C2.38723 16.6253 2.35393 16.5741 2.32108 16.5225L2.40438 16.6511C2.35127 16.5704 2.29926 16.489 2.24837 16.4068L2.32108 16.5225C2.27341 16.4478 2.22668 16.3724 2.1809 16.2963L2.24837 16.4068C2.19966 16.3281 2.15198 16.2487 2.10534 16.1687L2.1809 16.2963C2.13866 16.2261 2.09723 16.1554 2.05663 16.0841L2.0569 16.0846C1.907 15.8215 1.76861 15.5516 1.64211 15.2751L1.69522 15.3893C1.65716 15.3088 1.62013 15.2277 1.58412 15.146L1.58387 15.1455C1.38934 14.7043 1.22473 14.2463 1.0929 13.7746L1.03838 13.5714L0.962518 13.256C0.955241 13.2235 0.948118 13.1909 0.94115 13.1583C0.889796 12.9177 0.846893 12.6743 0.812702 12.4282L0.824958 12.5138C0.807879 12.398 0.79273 12.2816 0.779544 12.1645L0.812702 12.4282C0.797367 12.3178 0.783784 12.2068 0.771983 12.0953L0.771953 12.0951C0.745147 11.8418 0.727522 11.5855 0.719448 11.3269L0.719466 11.3274L0.714355 11.0001L0.719683 10.6659C0.721021 10.6239 0.722611 10.582 0.72445 10.5402C0.734997 10.3005 0.753739 10.0631 0.780405 9.82797L0.77159 9.90851C0.783171 9.79873 0.796479 9.68945 0.811486 9.58072L0.811468 9.58086L0.829295 9.45724L0.881756 9.14194C0.906624 9.00565 0.934178 8.87029 0.964361 8.73592L0.964436 8.73559L1.03861 8.42784L1.0929 8.22557C1.22575 7.75021 1.39189 7.28875 1.58864 6.84386L1.57061 6.88487C1.63507 6.73739 1.70289 6.5917 1.77396 6.44792C1.79774 6.39982 1.82193 6.35184 1.84648 6.30408C1.93542 6.13108 2.02894 5.96123 2.12703 5.7944L2.05543 5.91815C2.10252 5.83543 2.15074 5.75343 2.20004 5.67217L2.12703 5.7944C2.16261 5.73389 2.19879 5.67377 2.23556 5.61407L2.20004 5.67217C2.24305 5.60129 2.28688 5.53098 2.33153 5.46124L2.23556 5.61407C2.29103 5.52398 2.34786 5.43482 2.40601 5.34661L2.40607 5.34652C2.61565 5.02857 2.84246 4.72286 3.08514 4.4308L3.00279 4.53118C3.05793 4.4631 3.11392 4.39574 3.17074 4.32911L3.08514 4.4308C3.1418 4.36261 3.19932 4.29516 3.25769 4.22848L3.17074 4.32911C3.22721 4.2629 3.28451 4.19741 3.34262 4.13266L3.25769 4.22848C3.31586 4.16203 3.37487 4.09633 3.4347 4.03141L3.34262 4.13266C3.39699 4.07207 3.45208 4.01213 3.50786 3.95285L3.4347 4.03141C3.49565 3.96527 3.55746 3.89994 3.6201 3.83543L3.50786 3.95285C3.57364 3.88294 3.6404 3.81395 3.7081 3.7459L3.6201 3.83543C3.67425 3.77966 3.72902 3.72451 3.78441 3.66998L3.78476 3.66964C3.94784 3.50909 4.11663 3.35361 4.29048 3.20386C4.4119 3.09926 4.53598 2.9973 4.66244 2.89824C4.79852 2.79164 4.93753 2.68826 5.07918 2.58838L4.97722 2.6612C5.06489 2.59777 5.1536 2.53569 5.24332 2.47499L5.07918 2.58838C5.1445 2.54231 5.21038 2.49699 5.27681 2.45243L5.24332 2.47499C5.31053 2.42952 5.3783 2.38482 5.44663 2.34091L5.27681 2.45243C5.35136 2.40241 5.4266 2.35334 5.50251 2.30525L5.50259 2.3052C5.62978 2.22461 5.75894 2.14669 5.88992 2.07156C5.94264 2.04132 5.9958 2.01145 6.04926 1.98204C6.20043 1.89888 6.3538 1.81946 6.50937 1.74384L6.43691 1.77941C6.50947 1.74344 6.58251 1.70829 6.65603 1.67399L6.50937 1.74384C6.59614 1.70167 6.6836 1.66067 6.77172 1.62089L6.65603 1.67399C6.73716 1.63614 6.81887 1.59931 6.90113 1.56353L6.77172 1.62089C6.85296 1.5842 6.93476 1.54854 7.01711 1.51393L7.01707 1.51394C7.15537 1.45581 7.29516 1.40062 7.43641 1.34845C7.54171 1.30956 7.64795 1.27229 7.75497 1.23674L7.62313 1.28154C7.69499 1.25657 7.76721 1.23238 7.83979 1.20897L7.75497 1.23674C7.83637 1.2097 7.91823 1.18364 8.00052 1.15859L7.83979 1.20897C7.93706 1.1776 8.03497 1.14763 8.13349 1.1191L8.00052 1.15859C8.08702 1.13226 8.174 1.10704 8.26144 1.08295L8.13349 1.1191C8.21971 1.09413 8.30639 1.07026 8.39353 1.0475L8.26144 1.08295C8.34957 1.05867 8.43817 1.03553 8.52722 1.01355L8.39353 1.0475C8.48004 1.02491 8.567 1.00341 8.65438 0.98303L8.52722 1.01355C8.6114 0.992775 8.69599 0.973036 8.78097 0.954349L8.65438 0.98303C8.73843 0.963425 8.82287 0.944851 8.9077 0.927322L8.78097 0.954349C8.87798 0.933018 8.97549 0.913055 9.0735 0.894484L8.9077 0.927322C8.99485 0.909312 9.08241 0.892404 9.17035 0.876615L9.0735 0.894484C9.15028 0.879935 9.22737 0.86624 9.30474 0.853408L9.30454 0.853441C9.40769 0.836335 9.51115 0.820791 9.61511 0.806799L9.71754 0.793537L9.96438 0.765851C10.305 0.731795 10.6505 0.714355 11.0001 0.714355C11.6242 0.714355 12.2353 0.769943 12.8288 0.876436L12.7055 0.854496C12.7997 0.870225 12.8934 0.887234 12.9867 0.905503L12.8288 0.876436C12.9039 0.889915 12.9787 0.90421 13.0533 0.919311L13.0534 0.918794C13.2338 0.955877 13.4126 0.997169 13.5895 1.04305L13.5088 1.02199C13.5863 1.04144 13.6635 1.06177 13.7404 1.08297L13.5895 1.04305C13.6762 1.06555 13.7626 1.08915 13.8484 1.11383L13.8483 1.11337C14.0267 1.16512 14.2031 1.2211 14.3773 1.28164L14.3771 1.2812C14.4996 1.32412 14.6208 1.36885 14.7409 1.41577L14.6008 1.36191C14.6944 1.3969 14.7874 1.43322 14.8797 1.47084L14.7409 1.41577C14.8189 1.44625 14.8965 1.47765 14.9736 1.50997L14.8797 1.47084C14.9532 1.50081 15.0263 1.5316 15.0989 1.56321L14.9736 1.50997C15.0591 1.54582 15.1441 1.58281 15.2284 1.62089L15.0989 1.56321C15.1813 1.59904 15.2631 1.63591 15.3443 1.67382L15.2284 1.62089C15.3165 1.66065 15.4039 1.70161 15.4906 1.74375L15.3443 1.67382C15.4178 1.70815 15.4909 1.74332 15.5635 1.77933L15.5632 1.77941C15.6942 1.84415 15.8233 1.91167 15.9508 1.98181C16.1361 2.08393 16.3178 2.19136 16.4958 2.3041L16.4959 2.30404ZM13.0701 15.1137L8.93025 15.1144C9.37294 16.8666 10.0891 18.4304 10.9997 19.7118C11.911 18.4306 12.6273 16.8664 13.0701 15.1137ZM3.28383 15.1144C4.46063 17.3168 6.55284 18.9565 9.05227 19.5252C8.29949 18.221 7.71575 16.7309 7.34482 15.1145L3.28383 15.1144ZM18.7163 15.1144L14.6555 15.1136C14.2847 16.73 13.701 18.2201 12.9487 19.5243C15.4473 18.9565 17.5395 17.3168 18.7163 15.1144ZM7.06187 8.42815L2.6416 8.42825C2.39171 9.24137 2.25721 10.105 2.25721 11.0001C2.25721 11.8948 2.39162 12.7582 2.64134 13.571L7.06183 13.5717C6.94624 12.7383 6.88578 11.8787 6.88578 11.0001C6.88578 10.1213 6.94625 9.26161 7.06187 8.42815ZM13.3799 8.42763H8.62021C8.49485 9.25559 8.42864 10.1159 8.42864 11.0001C8.42864 11.8839 8.49479 12.7438 8.62005 13.5715L13.3801 13.5717C13.5053 12.744 13.5715 11.884 13.5715 11.0001C13.5715 10.1159 13.5053 9.25559 13.3799 8.42763ZM19.3585 8.42825L14.9383 8.42815C15.0539 9.26161 15.1144 10.1213 15.1144 11.0001C15.1144 11.8785 15.0539 12.7379 14.9384 13.5711L19.3588 13.571C19.6085 12.7582 19.7429 11.8948 19.7429 11.0001C19.7429 10.105 19.6084 9.24137 19.3585 8.42825ZM9.05139 2.47586L8.89906 2.5113C6.46776 3.11105 4.43705 4.72805 3.28429 6.88493L7.3448 6.88569C7.71566 5.2696 8.29925 3.77977 9.05139 2.47586ZM11.0001 2.28785L10.9623 2.34128C10.0695 3.61273 9.36691 5.15749 8.9303 6.88553H13.0698C12.6271 5.13322 11.9108 3.56936 11.0001 2.28785ZM12.9479 2.47498L13.0033 2.57135C13.7292 3.85234 14.2935 5.30892 14.6553 6.88569L18.7158 6.88493C17.539 4.6829 15.447 3.04359 12.9479 2.47498Z" fill="#3F8AE0"/>
</svg>
