<svg width="28" height="28" viewBox="0 0 28 28" fill="none" xmlns="http://www.w3.org/2000/svg">
<path opacity="0.25" d="M15.3675 18.0513C15.5592 16.6514 16.6514 15.5592 18.0513 15.3675C18.8542 15.2576 19.7263 15.1667 20.4167 15.1667C21.1072 15.1667 21.9793 15.2576 22.7822 15.3675C24.1821 15.5592 25.2743 16.6514 25.466 18.0513C25.5759 18.8542 25.6667 19.7263 25.6667 20.4167C25.6667 21.1072 25.5759 21.9793 25.466 22.7822C25.2743 24.1821 24.1821 25.2743 22.7822 25.466C21.9793 25.5759 21.1072 25.6667 20.4167 25.6667C19.7263 25.6667 18.8542 25.5759 18.0513 25.466C16.6514 25.2743 15.5592 24.1821 15.3675 22.7822C15.2576 21.9793 15.1667 21.1072 15.1667 20.4167C15.1667 19.7263 15.2576 18.8542 15.3675 18.0513Z" fill="#99A2AD"/>
<path opacity="0.25" d="M2.53403 18.0513C2.72575 16.6514 3.81788 15.5592 5.21776 15.3675C6.02067 15.2576 6.89277 15.1667 7.58325 15.1667C8.27373 15.1667 9.14583 15.2576 9.94874 15.3675C11.3486 15.5592 12.4408 16.6514 12.6325 18.0513C12.7424 18.8542 12.8333 19.7263 12.8333 20.4167C12.8333 21.1072 12.7424 21.9793 12.6325 22.7822C12.4408 24.1821 11.3486 25.2743 9.94874 25.466C9.14583 25.5759 8.27373 25.6667 7.58325 25.6667C6.89277 25.6667 6.02067 25.5759 5.21776 25.466C3.81788 25.2743 2.72575 24.1821 2.53403 22.7822C2.42406 21.9793 2.33325 21.1072 2.33325 20.4167C2.33325 19.7263 2.42406 18.8542 2.53403 18.0513Z" fill="#99A2AD"/>
<path opacity="0.25" d="M15.3675 5.21776C15.5592 3.81788 16.6514 2.72575 18.0513 2.53403C18.8542 2.42406 19.7263 2.33325 20.4167 2.33325C21.1072 2.33325 21.9793 2.42406 22.7822 2.53403C24.1821 2.72575 25.2743 3.81788 25.466 5.21776C25.5759 6.02067 25.6667 6.89277 25.6667 7.58325C25.6667 8.27373 25.5759 9.14583 25.466 9.94874C25.2743 11.3486 24.1821 12.4408 22.7822 12.6325C21.9793 12.7424 21.1072 12.8333 20.4167 12.8333C19.7263 12.8333 18.8542 12.7424 18.0513 12.6325C16.6514 12.4408 15.5592 11.3486 15.3675 9.94874C15.2576 9.14583 15.1667 8.27373 15.1667 7.58325C15.1667 6.89277 15.2576 6.02067 15.3675 5.21776Z" fill="#99A2AD"/>
<path d="M2.53403 5.21776C2.72575 3.81788 3.81788 2.72575 5.21776 2.53403C6.02067 2.42406 6.89277 2.33325 7.58325 2.33325C8.27373 2.33325 9.14583 2.42406 9.94874 2.53403C11.3486 2.72575 12.4408 3.81788 12.6325 5.21776C12.7424 6.02067 12.8333 6.89277 12.8333 7.58325C12.8333 8.27373 12.7424 9.14583 12.6325 9.94874C12.4408 11.3486 11.3486 12.4408 9.94874 12.6325C9.14583 12.7424 8.27373 12.8333 7.58325 12.8333C6.89277 12.8333 6.02067 12.7424 5.21776 12.6325C3.81788 12.4408 2.72575 11.3486 2.53403 9.94874C2.42406 9.14583 2.33325 8.27373 2.33325 7.58325C2.33325 6.89277 2.42406 6.02067 2.53403 5.21776Z" fill="#99A2AD"/>
</svg>
