<svg width="253" height="45" viewBox="0 0 253 45" fill="none" xmlns="http://www.w3.org/2000/svg">
<g clip-path="url(#clip0_584_43891)">
<path fill-rule="evenodd" clip-rule="evenodd" d="M79.8589 23.6588C79.8589 27.8494 76.671 31.4063 71.279 31.4063C65.887 31.4063 62.0747 27.3386 62.0747 22.325C62.0747 17.3113 65.887 13.2437 71.279 13.2437C74.5615 13.2437 77.4278 14.9748 78.8751 17.5573L77.3237 18.4559C76.2453 16.3464 73.9088 14.9464 71.279 14.9464C66.8424 14.9464 63.8342 18.2289 63.8342 22.3155C63.8342 26.4021 66.8424 29.6941 71.279 29.6941C75.3656 29.6941 77.721 27.3386 78.0521 24.3966H71.0803V22.7412H79.8589V23.6588Z" fill="white"/>
<path fill-rule="evenodd" clip-rule="evenodd" d="M92.0526 24.0845H87.1335V31.1036H85.374V13.5464H92.3931C95.2972 13.5464 97.6622 15.9019 97.6622 18.8154C97.6622 21.1993 96.054 23.2331 93.8783 23.8575L98.1635 31.1036H96.1581L92.0526 24.0845ZM87.1335 22.429H92.4026C94.3323 22.429 95.9121 20.802 95.9121 18.8154C95.9121 16.81 94.3323 15.2018 92.4026 15.2018H87.1335V22.429Z" fill="white"/>
<path fill-rule="evenodd" clip-rule="evenodd" d="M113.242 26.79H104.918L103.291 31.1036H101.437L108.181 13.5464H109.988L116.733 31.1036H114.879L113.242 26.79ZM112.618 25.1345L109.08 15.7316L105.542 25.1345H112.618Z" fill="white"/>
<path fill-rule="evenodd" clip-rule="evenodd" d="M134.545 13.5464V31.1036H133.041L123.26 16.81V31.1036H121.5V13.5464H123.005L132.786 27.8495V13.5464H134.545Z" fill="white"/>
<path fill-rule="evenodd" clip-rule="evenodd" d="M156.114 22.325C156.114 27.1684 152.68 31.1036 147.836 31.1036H141.063V13.5464H147.836C152.68 13.5464 156.114 17.4911 156.114 22.325ZM154.411 22.325C154.411 18.3898 151.753 15.2018 147.836 15.2018H142.823V29.4481H147.836C151.753 29.4481 154.411 26.2697 154.411 22.325Z" fill="white"/>
<path fill-rule="evenodd" clip-rule="evenodd" d="M173.425 19.0709C173.425 22.202 171.069 24.5859 167.91 24.5859H163.398V31.1036H161.638V13.5464H167.91C171.069 13.5464 173.425 15.9113 173.425 19.0709ZM171.675 19.0709C171.675 16.81 170.095 15.2113 167.91 15.2113H163.398V22.9399H167.91C170.086 22.9304 171.675 21.3033 171.675 19.0709Z" fill="white"/>
<path fill-rule="evenodd" clip-rule="evenodd" d="M191.994 13.5464V31.1036H190.235V22.902H180.7V31.1036H178.949V13.5464H180.7V21.2466H190.235V13.5464H191.994Z" fill="white"/>
<path fill-rule="evenodd" clip-rule="evenodd" d="M208.568 26.79H200.243L198.616 31.1036H196.762L203.507 13.5464H205.314L212.058 31.1036H210.204L208.568 26.79ZM207.943 25.1345L204.405 15.7316L200.867 25.1345H207.943Z" fill="white"/>
<path fill-rule="evenodd" clip-rule="evenodd" d="M223.495 24.0845H218.576V31.1036H216.817V13.5464H223.836C226.749 13.5464 229.105 15.9019 229.105 18.8154C229.105 21.1993 227.497 23.2331 225.321 23.8575L229.606 31.1036H227.601L223.495 24.0845ZM218.586 22.429H223.855C225.784 22.429 227.364 20.802 227.364 18.8154C227.364 16.81 225.784 15.2018 223.855 15.2018H218.586V22.429Z" fill="white"/>
<path fill-rule="evenodd" clip-rule="evenodd" d="M250.692 31.1036H248.932V16.2046L242.793 26.4873H242.538L236.398 16.2046V31.1036H234.639V13.5464H236.824L242.66 23.3277L248.507 13.5464H250.692V31.1036Z" fill="white"/>
<path fill-rule="evenodd" clip-rule="evenodd" d="M12.3164 43.7512C8.00278 41.2538 7.66223 35.3604 10.1785 31.0184L10.3866 29.9873H29.7979L24.4154 39.2673C21.9085 43.6093 16.63 46.2485 12.3164 43.7512Z" fill="#EBEBF5" fill-opacity="0.6"/>
<path fill-rule="evenodd" clip-rule="evenodd" d="M36.9117 1.02139C41.2253 3.51876 41.5659 9.41215 39.0496 13.7542L38.5388 14.7853H19.4302L24.8127 5.50529C27.3196 1.16329 32.5981 -1.47597 36.9117 1.02139Z" fill="#EBEBF5" fill-opacity="0.6"/>
<path fill-rule="evenodd" clip-rule="evenodd" d="M38.5387 14.7759L24.4248 39.2671C22.5991 42.4171 19.326 44.6685 16.0151 44.7158L33.3264 44.7631C35.9562 44.7631 38.3873 43.3631 39.7117 41.0928L46.5984 29.2114L38.5387 14.7759Z" fill="white"/>
<path fill-rule="evenodd" clip-rule="evenodd" d="M0.985607 26.0331C-0.329291 23.7533 -0.319832 20.9438 0.995067 18.664L9.67907 3.67037C10.994 1.40004 13.4346 0 16.0644 0L33.3756 0.0472985C30.0647 0.094597 26.7917 2.34601 24.966 5.49609L10.1804 31.0184C8.35472 34.1684 8.03309 38.1321 9.64124 41.0267L0.985607 26.0331Z" fill="white"/>
</g>
<defs>
<clipPath id="clip0_584_43891">
<rect width="252.584" height="44.7633" fill="white"/>
</clipPath>
</defs>
</svg>
