<svg width="40" height="36" viewBox="0 0 40 36" fill="none" xmlns="http://www.w3.org/2000/svg">
<path d="M28.364 19.0561C28.8847 19.2401 29.1577 19.8114 28.9737 20.3321C27.7615 23.7633 24.6395 26.1739 21.0052 26.4694L21.0049 29C21.0049 29.555 20.555 30.005 19.9999 30.005C19.4449 30.005 18.9949 29.555 18.9949 29L18.9948 26.4694C15.361 26.174 12.2393 23.7641 11.0267 20.3337C10.8426 19.813 11.1155 19.2416 11.6362 19.0576C12.1569 18.8735 12.7283 19.1464 12.9123 19.6671C13.9279 22.5399 16.6527 24.5 19.7499 24.5H20.2499C23.3476 24.5 26.0728 22.5393 27.088 19.6659C27.2719 19.1451 27.8432 18.8721 28.364 19.0561ZM19.9999 8C22.7614 8 24.9999 10.2386 24.9999 13V17C24.9999 19.7614 22.7614 22 19.9999 22C17.2385 22 14.9999 19.7614 14.9999 17V13C14.9999 10.2386 17.2385 8 19.9999 8ZM19.9999 10.01C18.3486 10.01 17.0099 11.3487 17.0099 13V17C17.0099 18.6513 18.3486 19.99 19.9999 19.99C21.6513 19.99 22.9899 18.6513 22.9899 17V13C22.9899 11.3487 21.6513 10.01 19.9999 10.01Z" fill="#99A2AD"/>
</svg>
